<?xml version="1.0" encoding="UTF-8" standalone="no"?>
<!-- Created with Inkscape (http://www.inkscape.org/) -->

<svg
   width="256mm"
   height="256mm"
   viewBox="0 0 256 256"
   version="1.1"
   id="svg5"
   inkscape:version="1.2 (dc2aedaf03, 2022-05-15)"
   sodipodi:docname="logo.svg"
   xmlns:inkscape="http://www.inkscape.org/namespaces/inkscape"
   xmlns:sodipodi="http://sodipodi.sourceforge.net/DTD/sodipodi-0.dtd"
   xmlns="http://www.w3.org/2000/svg"
   xmlns:svg="http://www.w3.org/2000/svg">
  <sodipodi:namedview
     id="namedview7"
     pagecolor="#ffffff"
     bordercolor="#000000"
     borderopacity="0.25"
     inkscape:showpageshadow="2"
     inkscape:pageopacity="0.0"
     inkscape:pagecheckerboard="0"
     inkscape:deskcolor="#d1d1d1"
     inkscape:document-units="mm"
     showgrid="false"
     inkscape:zoom="0.73851712"
     inkscape:cx="289.09283"
     inkscape:cy="480.69299"
     inkscape:window-width="1920"
     inkscape:window-height="1009"
     inkscape:window-x="-8"
     inkscape:window-y="-8"
     inkscape:window-maximized="1"
     inkscape:current-layer="layer1" />
  <defs
     id="defs2" />
  <g
     inkscape:label="图层 1"
     inkscape:groupmode="layer"
     id="layer1">
    <circle
       style="fill:none;stroke:#000000;stroke-width:0.264583"
       id="path1465"
       cx="132.5573"
       cy="125.03379"
       r="88.84922" />
    <circle
       style="fill:none;stroke:#000000;stroke-width:0.264583"
       id="path1625"
       cx="142.40952"
       cy="126.64594"
       r="99.059708" />
    <path
       style="fill:none;stroke:#000000;stroke-width:0.264583"
       id="path1676"
       d="m 137.66562,50.719645 c 0.60065,1.997337 0.99276,4.054936 1.34274,6.10937 0.32841,2.105572 0.37749,4.239466 0.41843,6.365838 0.0327,3.461789 0.0831,6.922309 0.0211,10.383805 -0.1156,7.30272 -1.27957,14.508893 -2.75722,21.642133 -0.73147,3.160954 -1.41507,6.341009 -2.43388,9.425859 -0.51877,1.57076 -0.73541,2.05145 -1.3405,3.57394 -1.11008,2.38612 -2.10066,4.82026 -3.06662,7.26688 -0.57372,1.47939 -1.26285,2.90828 -1.9166,4.35219 -0.48657,0.96199 -0.87487,1.96353 -1.21525,2.9846 -0.45102,1.21754 -0.81943,2.46846 -1.17607,3.71723 -0.17231,0.52917 -0.33927,1.05957 -0.49514,1.59377 0,0 3.45935,1.88424 3.45935,1.88424 v 0 c 0.14685,-0.53865 0.30547,-1.07346 0.47796,-1.60457 0.3387,-1.24569 0.72324,-2.48405 1.18297,-3.69009 0.34113,-1.00797 0.70463,-2.00554 1.18408,-2.95855 0.64355,-1.45751 1.31344,-2.90392 1.87883,-4.39519 0.94539,-2.45737 1.91394,-4.90471 2.98069,-7.31276 0.55558,-1.41429 0.87097,-2.15328 1.33984,-3.61034 1.00292,-3.11669 1.61818,-6.3397 2.30488,-9.535124 1.38681,-7.154622 2.5956,-14.363967 2.84878,-21.662337 0.15326,-3.433209 0.20469,-6.868303 0.17219,-10.305052 -0.0273,-2.143255 -0.0876,-4.29133 -0.38637,-6.417043 -0.359,-2.043956 -0.75935,-4.08418 -1.25548,-6.099212 0,0 -3.56876,-1.709587 -3.56876,-1.709587 z" />
    <path
       style="fill:#ffaaaa;stroke:#000000;stroke-width:0.264583"
       id="path1678"
       d="m 127.73509,128.70343 c 3.13614,-0.0434 6.27236,-0.0654 9.40869,-0.0426 7.16169,0.18372 14.32297,0.38226 21.48469,0.56496 2.85327,0.0677 5.7061,0.16116 8.5602,0.1842 1.95966,-0.005 3.91933,-0.007 5.87898,-0.0149 3.43252,-0.0371 6.86544,0.008 10.2972,-0.0763 3.56172,-0.092 7.12142,-0.21131 10.67453,-0.48067 2.80157,-0.35337 5.62221,-0.52195 8.42863,-0.82007 1.34665,-0.18057 2.69621,-0.31659 4.05377,-0.37062 0.1836,-0.005 0.3672,-0.009 0.55079,-0.0139 0,0 -3.18933,-2.30172 -3.18933,-2.30172 v 0 c -0.18348,0.007 -0.36696,0.0141 -0.55044,0.0211 -1.34833,0.0707 -2.68617,0.22952 -4.02238,0.42289 -2.7822,0.30969 -5.5743,0.53555 -8.3557,0.85621 -3.5424,0.26148 -7.09146,0.37965 -10.64169,0.47989 -3.45634,0.0691 -6.91353,0.0248 -10.37037,0.0131 -1.97053,-0.005 -3.94108,-7.9e-4 -5.91159,-0.0109 -2.78131,0.001 -5.56268,0.002 -8.34383,-0.034 -7.168,-0.0988 -14.33384,-0.28981 -21.49707,-0.57191 -3.2176,-0.0729 -6.43514,-0.0977 -9.65328,-0.1283 0,0 3.1982,2.32363 3.1982,2.32363 z" />
    <path
       style="fill:#ffaaaa;stroke:#000000;stroke-width:1.35406"
       d="m 476.6308,475.38183 c 0,-1.97345 5.15806,-15.01475 15.57272,-39.37298 17.91642,-41.90367 21.27615,-52.59913 28.28568,-90.0453 6.172,-32.97195 6.92127,-42.56677 6.87309,-88.01421 -0.0375,-35.34269 -0.45629,-45.0745 -2.27203,-52.79327 -1.22436,-5.20476 -2.04079,-9.64851 -1.81429,-9.87501 0.22649,-0.22649 2.52565,0.59622 5.10924,1.82824 4.46401,2.12874 4.81664,2.82129 7.09658,13.9372 5.01339,24.44306 4.07753,80.19584 -2.00892,119.67812 -3.83912,24.90406 -10.3813,56.41859 -14.2472,68.63067 -1.78451,5.63711 -7.91571,21.52189 -13.6249,35.2995 -5.70919,13.77761 -11.75011,28.70617 -13.42426,33.17458 l -3.0439,8.12439 -6.25091,0.41271 c -3.66025,0.24166 -6.2509,-0.16642 -6.2509,-0.98464 z"
       id="path1818"
       transform="scale(0.26458333)" />
    <path
       style="fill:#ffaaaa;stroke:#000000;stroke-width:1.35406"
       d="M 462.63697,805.03976 C 420.10788,799.64814 384.87594,788.72088 347.29993,769.26774 283.73424,736.35971 234.28979,686.09943 201.94623,621.51572 185.4772,588.63034 175.44315,557.05427 169.67474,519.96087 c -3.40085,-21.86893 -3.40085,-72.9156 0,-94.78454 5.76841,-37.09339 15.80246,-68.66947 32.27149,-101.55485 33.22082,-66.33541 82.85505,-116.05832 149.43357,-149.70053 33.21718,-16.78468 64.67465,-26.84102 102.23189,-32.68157 21.86894,-3.40085 72.91561,-3.40085 94.78454,0 37.0934,5.76841 68.66947,15.80246 101.55485,32.27149 66.85312,33.48008 117.319,84.11217 150.2927,150.78764 17.04131,34.45892 26.29949,63.47957 31.96603,100.20079 3.53315,22.89596 3.53315,73.24264 0,96.1386 -5.66654,36.72122 -14.92472,65.74187 -31.96603,100.20079 -26.75622,54.10326 -65.07705,97.55998 -115.76404,131.27911 -15.97422,10.62673 -51.30491,28.36965 -70.38091,35.34499 -16.45462,6.01682 -45.16302,13.25926 -64.34854,16.23363 -19.55586,3.03178 -67.91286,3.77747 -87.11332,1.34334 z m 24.82634,-315.05381 v -2.89362 l 54.50111,1.20104 c 29.97561,0.66058 83.44424,1.13935 118.81918,1.06394 55.76655,-0.11889 67.95602,-0.52395 91.67988,-3.04664 15.049,-1.60025 28.3019,-2.90955 29.45091,-2.90955 3.59162,0 2.25739,-1.86959 -4.70422,-6.59178 l -6.7235,-4.56066 -28.10876,3.2066 c -26.63722,3.03874 -32.5392,3.20661 -112.7378,3.20661 -46.54597,0 -96.63342,-0.52245 -111.30545,-1.161 l -26.67639,-1.16099 3.21833,-8.31746 c 1.77008,-4.5746 7.27731,-18.06672 12.23831,-29.98249 12.91752,-31.02649 16.24252,-41.40889 21.62421,-67.52221 7.17351,-34.80765 10.01424,-56.59384 11.70573,-89.77374 1.65963,-32.55529 0.51552,-56.7469 -3.51839,-74.39375 l -2.19975,-9.62308 -8.12841,-3.50723 c -6.92792,-2.98925 -8.02393,-3.16787 -7.42099,-1.20944 5.20099,16.8937 5.52281,20.85722 5.51905,67.96993 -0.004,49.90986 -0.61979,56.89741 -8.29337,94.1075 -6.90065,33.46205 -10.32734,43.33857 -34.86658,100.49357 -2.62713,6.11891 -5.43844,13.58319 -6.24736,16.5873 -1.12073,4.16207 -2.14232,5.462 -4.2925,5.462 -2.45861,0 -2.58521,0.285 -0.98377,2.21462 1.01089,1.21804 1.84716,3.19392 1.85838,4.39084 0.0175,1.86785 11.62186,9.51966 14.5766,9.61168 0.55856,0.0175 1.01555,-1.27049 1.01555,-2.86199 z"
       id="path1820"
       transform="scale(0.26458333)" />
    <path
       style="fill:#c83737;stroke:#000000;stroke-width:1.35406"
       d="m 481.17713,466.89673 c 1.77727,-4.7002 7.82818,-19.51373 13.44646,-32.91897 14.44667,-34.46984 19.28937,-49.2631 24.65563,-75.31695 7.84131,-38.07056 8.80604,-49.02988 8.80604,-100.03714 0,-28.21229 -0.5728,-48.57307 -1.48631,-52.83261 -1.69631,-7.9096 -0.99232,-9.53504 2.6874,-6.20494 3.7038,3.35188 5.33572,11.02927 7.17923,33.77479 3.05459,37.68789 -1.69272,91.0678 -12.47828,140.30891 -4.87698,22.26569 -7.47441,29.95825 -24.02086,71.14045 l -11.96899,29.78943 -5.02587,0.42142 -5.02586,0.42142 z"
       id="path1962"
       transform="scale(0.26458333)" />
    <path
       style="fill:#c83737;stroke:#000000;stroke-width:1.35406"
       d="m 532.14745,485.82208 c -39.78333,-1.05591 -50.04053,-1.70516 -52.58749,-3.32862 -1.74027,-1.10927 -2.81561,-2.36538 -2.38963,-2.79136 0.42597,-0.42598 36.73992,0.025 80.69767,1.00218 92.17833,2.04911 140.94379,1.27547 182.78582,-2.89981 l 29.48581,-2.9423 4.56232,3.25393 4.56232,3.25392 -22.34207,2.41308 c -27.59679,2.98062 -148.10865,4.07381 -224.77475,2.03898 z"
       id="path1964"
       transform="scale(0.26458333)" />
    <path
       style="fill:#c83737;stroke:#000000;stroke-width:1.35406"
       d=""
       id="path1966"
       transform="scale(0.26458333)" />
    <path
       style="fill:#f4d7d7;stroke:#000000;stroke-width:1.35406"
       d="m 508.45132,850.85348 c -34.44798,-3.65783 -59.65216,-8.88203 -87.33718,-18.1028 C 364.12437,813.76967 316.78426,784.3778 274.14418,741.502 233.61421,700.74798 205.88096,656.99196 186.69721,603.5329 180.7199,586.87601 172.88756,558.49584 173.6427,556.23041 c 0.27854,-0.8356 1.6213,2.69615 2.98391,7.84837 12.32771,46.6127 40.49799,97.30764 75.02858,135.02064 46.13269,50.38436 102.85481,84.23306 168.10489,100.31588 30.15212,7.43189 47.67133,9.47507 81.24388,9.47507 33.57255,0 51.09176,-2.04318 81.24389,-9.47507 34.03663,-8.38935 63.40796,-20.51161 92.57405,-38.20757 87.87579,-53.31692 145.62755,-141.02859 160.18083,-243.27796 3.19449,-22.44398 3.20711,-68.6011 0.0248,-90.72234 C 828.38211,381.013 812.80696,336.92885 789.64308,298.75067 711.93433,170.67278 562.77713,109.61265 417.05195,146.22391 344.48642,164.4549 277.23855,209.32886 231.86342,269.7987 c -4.89032,6.51716 -9.15633,11.58453 -9.48003,11.26084 -0.32369,-0.3237 3.09992,-5.96058 7.60803,-12.52641 56.99104,-83.00436 145.09903,-139.98986 243.25421,-157.32923 50.50229,-8.92135 107.68097,-6.78351 156.89404,5.86609 146.03296,37.53594 253.91062,156.94577 277.30393,306.94783 2.56311,16.43514 3.03148,24.87771 3.03148,54.64407 0,39.7981 -2.24167,59.17279 -10.63568,91.92399 -37.28126,145.46153 -157.66945,254.39103 -306.25948,277.10936 -18.1592,2.77641 -70.45352,4.71651 -85.1286,3.15824 z"
       id="path2112"
       transform="scale(0.26458333)" />
    <path
       style="fill:#a02c2c;stroke:#000000;stroke-width:1.35406"
       d="m 507.77428,849.42964 c -77.18217,-7.97387 -145.1387,-35.46011 -203.10971,-82.15139 -5.58552,-4.4987 -18.43438,-16.43814 -28.55303,-26.53209 -31.09791,-31.02196 -50.96743,-58.31756 -69.95453,-96.09953 -13.03094,-25.92995 -14.84176,-33.05341 -2.98021,-11.7236 17.56824,31.59174 34.00013,53.70198 57.48067,77.34421 19.28796,19.42078 31.75461,29.68589 54.49896,44.87476 41.69435,27.84383 93.9773,47.00113 145.19007,53.19992 16.79609,2.03299 68.50004,1.68767 85.3416,-0.56997 121.97495,-16.35104 224.48667,-96.52717 270.17246,-211.30642 9.53603,-23.95796 17.95914,-57.41282 21.0468,-83.59361 2.23938,-18.98797 0.93661,-80.63117 -2.03938,-96.49701 C 822.07266,348.15932 793.6083,290.77991 748.12078,241.50705 706.03433,195.91828 647.29874,160.9231 587.1811,145.61776 527.54546,130.43514 468.56837,130.84549 409.30351,146.85541 360.452,160.05225 310.76735,187.9862 270.5541,224.8638 c -6.56025,6.01608 -11.92773,10.40843 -11.92773,9.76076 0,-2.2387 35.93073,-36.56168 49.43337,-47.22144 79.35073,-62.64403 178.83713,-90.12191 278.92733,-77.039 126.63505,16.55263 237.302,99.13909 290.06055,216.46098 13.96124,31.04629 24.43804,67.08796 29.42707,101.23314 2.86996,19.64222 2.89228,78.88323 0.038,100.97321 -5.09981,39.46929 -20.39271,86.58514 -40.12719,123.62776 -22.46045,42.15945 -59.27523,86.51453 -96.59972,116.38511 -47.07593,37.67457 -109.47549,65.71828 -168.66044,75.79965 -23.28279,3.96592 -74.83705,6.49841 -93.3511,4.58567 z"
       id="path2187"
       transform="scale(0.26458333)" />
    <path
       style="fill:#a02c2c;stroke:#000000;stroke-width:1.35406"
       d="m 507.77428,848.1676 c -35.56058,-4.4899 -57.14495,-9.21059 -86.66014,-18.9533 -37.97565,-12.53545 -81.01309,-35.70049 -111.71034,-60.12845 -32.52098,-25.87924 -70.13447,-68.80268 -89.3219,-101.9316 -5.16831,-8.9236 -3.56002,-9.37813 2.25138,-0.63629 7.87708,11.84916 20.53555,27.14917 34.53642,41.74339 39.2084,40.87004 86.3929,70.07756 141.85247,87.80766 33.3309,10.65569 62.39525,15.02273 99.85881,15.0042 52.32052,-0.0259 90.82313,-7.51874 136.09057,-26.48411 91.98802,-38.53958 165.43959,-121.71754 192.43135,-217.913 11.85262,-42.24133 14.50086,-72.8031 11.02715,-127.25828 -2.08352,-32.66233 -10.77074,-66.93864 -25.9042,-102.20771 C 768.80979,236.02743 676.8986,161.69966 568.7072,140.27874 c -25.94983,-5.13783 -41.73673,-6.64593 -69.0573,-6.59694 -70.2244,0.12595 -135.30174,20.34761 -191.21817,59.41776 -11.18279,7.81369 -13.86045,9.0308 -9.7318,4.42351 9.59075,-10.70258 46.24013,-35.27516 72.31381,-48.48477 39.24046,-19.88025 74.26316,-30.84356 119.83474,-37.5124 22.58222,-3.30463 72.23434,-3.30516 94.68644,-10e-4 33.53549,4.93525 58.95782,11.47149 86.0812,22.13203 117.80829,46.30323 203.04567,147.46086 229.39005,272.23448 5.28849,25.04758 6.65868,45.13801 5.79422,84.95707 -0.81043,37.3304 -1.97368,46.94153 -9.09551,75.15059 -17.34129,68.68764 -50.37893,126.18737 -101.71214,177.02298 -19.72387,19.53268 -29.73671,27.72365 -52.68297,43.09712 -48.67222,32.60929 -110.65935,55.16311 -165.12412,60.07989 -17.68123,1.59617 -63.26671,2.87063 -70.41137,1.96854 z"
       id="path2258"
       transform="scale(0.26458333)" />
  </g>
</svg>
